<?xml version="1.0" encoding="utf-8"?>
<!-- Generator: Adobe Illustrator 16.0.0, SVG Export Plug-In . SVG Version: 6.00 Build 0)  -->
<!DOCTYPE svg PUBLIC "-//W3C//DTD SVG 1.1//EN" "http://www.w3.org/Graphics/SVG/1.1/DTD/svg11.dtd">
<svg version="1.1" id="Layer_1" xmlns="http://www.w3.org/2000/svg" xmlns:xlink="http://www.w3.org/1999/xlink" x="0px" y="0px"
	 width="40px" height="40px" viewBox="0 0 40 40" enable-background="new 0 0 40 40" xml:space="preserve">
<g>
	<path fill="#FFFFFF" d="M13.184,6.53c0,1.672-1.355,3.028-3.027,3.028c-1.674,0-3.027-1.356-3.027-3.028
		c0-1.673,1.354-3.029,3.027-3.029C11.828,3.501,13.184,4.857,13.184,6.53L13.184,6.53z"/>
	<path fill="#FFFFFF" d="M5.604,20.167H5.93v9.349c0,0.826,0.733,1.502,1.629,1.502h3.42c0.896,0,1.629-0.676,1.629-1.502v-0.351
		c-0.299-0.524-0.49-4.47-0.49-5.095v-7.858c0-1.526,1.006-2.853,2.443-3.428v-0.601c0-0.826-0.732-1.502-1.629-1.502H5.604
		c-0.897,0-1.63,0.676-1.63,1.502v6.48C3.975,19.492,4.681,20.167,5.604,20.167L5.604,20.167z"/>
	<path fill="#FFFFFF" d="M32.896,6.53c0,1.672-1.357,3.028-3.027,3.028c-1.672,0-3.027-1.356-3.027-3.028
		c0-1.673,1.355-3.029,3.027-3.029C31.539,3.501,32.896,4.857,32.896,6.53L32.896,6.53z"/>
	<path fill="#FFFFFF" d="M25.439,12.16v0.601c1.438,0.574,2.439,1.9,2.439,3.428v7.833c0,0.625-0.164,3.455-0.488,3.98v0.35
		c0,0.828,0.73,1.502,1.631,1.502h3.422c0.895,0,1.627-0.674,1.627-1.502v-8.232h0.326c0.895,0,1.629-0.676,1.629-1.502V12.16
		c0-0.827-0.734-1.502-1.629-1.502h-7.328C26.172,10.658,25.439,11.333,25.439,12.16L25.439,12.16z"/>
	<path fill="#FFFFFF" d="M14.005,16.213v7.857c0,0.826,0.731,1.5,1.628,1.5h0.625v11.427c0,0.825,0.731,1.502,1.627,1.502h4.371
		c0.896,0,1.629-0.677,1.629-1.502v-11.45h0.623c0.898,0,1.629-0.675,1.629-1.501v-7.833c0-0.826-0.729-1.501-1.629-1.501h-8.875
		C14.709,14.712,14.005,15.387,14.005,16.213L14.005,16.213z"/>
	<path fill="#FFFFFF" d="M23.535,9.981c0,1.923-1.559,3.479-3.479,3.479s-3.479-1.556-3.479-3.479c0-1.92,1.56-3.476,3.479-3.476
		C21.975,6.505,23.535,8.061,23.535,9.981L23.535,9.981z"/>
</g>
</svg>
