<?xml version="1.0" encoding="utf-8"?>
<!-- Generator: Adobe Illustrator 16.0.0, SVG Export Plug-In . SVG Version: 6.00 Build 0)  -->
<!DOCTYPE svg PUBLIC "-//W3C//DTD SVG 1.1//EN" "http://www.w3.org/Graphics/SVG/1.1/DTD/svg11.dtd">
<svg version="1.1" id="Layer_1" xmlns="http://www.w3.org/2000/svg" xmlns:xlink="http://www.w3.org/1999/xlink" x="0px" y="0px"
	 width="40px" height="40px" viewBox="0 0 40 40" enable-background="new 0 0 40 40" xml:space="preserve">
<g>
	<path fill="#FFFFFF" d="M36.59,27.07l-2.979,0.002l-2.192,4.675H7.365l2.059-4.677H6.648c0,0-0.567,0.043-0.744,0.361
		c-0.145,0.269-2.177,4.363-2.699,5.518C3.1,33.182,3.228,33.623,3.851,33.59c0,0,29.135-0.005,29.598-0.005
		c0.563,0,0.826-0.517,0.826-0.517s2.439-5.414,2.535-5.7C36.906,27.083,36.59,27.07,36.59,27.07z"/>
	<path fill="#FFFFFF" d="M30.417,13.086h-5.976c-0.275,0-0.5-0.224-0.5-0.5V6.492H12.146c-0.305,0-0.846-0.06-0.846,0.623V28.88
		h19.117V13.086z M25.639,23.619c0.487,0.488,0.487,1.279,0,1.768c-0.244,0.244-0.563,0.366-0.885,0.366
		c-0.32,0-0.64-0.122-0.884-0.366l-2.97-2.97l-2.971,2.97c-0.244,0.244-0.563,0.366-0.883,0.366c-0.32,0-0.641-0.122-0.885-0.366
		c-0.488-0.488-0.488-1.279,0-1.768l2.971-2.971l-2.971-2.969c-0.488-0.488-0.488-1.279,0-1.768c0.488-0.489,1.279-0.488,1.768,0
		l2.971,2.97l2.97-2.97c0.487-0.488,1.278-0.488,1.769,0c0.488,0.488,0.487,1.279,0,1.768l-2.971,2.969L25.639,23.619z"/>
	<path fill="#FFFFFF" d="M30.57,11.539l-5.129-5.13v5.177h5.074C30.529,11.566,30.555,11.556,30.57,11.539z"/>
</g>
</svg>
