<?xml version="1.0" encoding="utf-8"?>
<!-- Generator: Adobe Illustrator 16.0.0, SVG Export Plug-In . SVG Version: 6.00 Build 0)  -->
<!DOCTYPE svg PUBLIC "-//W3C//DTD SVG 1.1//EN" "http://www.w3.org/Graphics/SVG/1.1/DTD/svg11.dtd">
<svg version="1.1" id="Layer_1" xmlns="http://www.w3.org/2000/svg" xmlns:xlink="http://www.w3.org/1999/xlink" x="0px" y="0px"
	 width="40px" height="40px" viewBox="0 0 40 40" enable-background="new 0 0 40 40" xml:space="preserve">
<g>
	<path fill="#FFFFFF" d="M35.371,12.136c-1.996-4.927-9.378-7.279-15.453-0.521c-6.482-6.691-13.63-4.409-15.337,0.26
		C0.4,23.313,19.926,34.57,19.926,34.57S39.762,22.954,35.371,12.136z M31.66,17.168l-9.688,9.686
		c-0.233,0.234-0.553,0.367-0.884,0.367c-0.332,0-0.649-0.133-0.884-0.367l-5.334-5.332c-0.488-0.488-0.488-1.281,0-1.77
		c0.488-0.488,1.279-0.488,1.768,0l4.45,4.45l8.804-8.802c0.487-0.488,1.278-0.488,1.768,0C32.148,15.888,32.148,16.68,31.66,17.168
		z"/>
</g>
</svg>
