<?xml version="1.0" encoding="utf-8"?>
<!-- Generator: Adobe Illustrator 16.0.0, SVG Export Plug-In . SVG Version: 6.00 Build 0)  -->
<!DOCTYPE svg PUBLIC "-//W3C//DTD SVG 1.1//EN" "http://www.w3.org/Graphics/SVG/1.1/DTD/svg11.dtd">
<svg version="1.1" id="Layer_1" xmlns="http://www.w3.org/2000/svg" xmlns:xlink="http://www.w3.org/1999/xlink" x="0px" y="0px"
	 width="40px" height="40px" viewBox="0 0 40 40" enable-background="new 0 0 40 40" xml:space="preserve">
<g>
	<g>
		<path fill="#FFFFFF" d="M18.287,9.143c0.691-0.425,1.528-0.707,2.459-0.638c1.195,0.083,2.184,0.743,2.779,1.545l3.521,6.202
			l4.814,2.937c0.416,0.279,0.666,0.73,0.611,1.222c-0.063,0.771-0.824,1.346-1.688,1.276c-0.266-0.013-0.479-0.105-0.717-0.201
			l-5.256-3.208c-0.156-0.118-0.291-0.26-0.396-0.412l-1.318-2.321l-1.582,6.177l6.198,6.493c0.146,0.201,0.237,0.438,0.291,0.677
			l1.675,7.838c-0.014,0.176,0.016,0.283,0,0.424c-0.091,1.168-1.236,2.014-2.535,1.932c-1.082-0.078-1.879-0.789-2.129-1.662
			l-1.582-7.344l-5.042-4.891l-1.17,4.762c-0.037,0.223-0.371,0.695-0.467,0.883l-4.841,7.227c-0.478,0.662-1.286,1.088-2.204,1.015
			c-1.317-0.082-2.292-1.097-2.185-2.25c0.03-0.33,0.189-0.675,0.323-0.906l4.494-6.687l3.751-14.723l-2.447,1.753l-1.304,5.25
			c-0.175,0.67-0.865,1.225-1.677,1.166c-0.876-0.06-1.514-0.729-1.449-1.509c0-0.062,0.014-0.116,0.027-0.19l1.541-6.118
			c0.094-0.261,0.254-0.495,0.481-0.674L18.287,9.143z"/>
	</g>
	<circle fill="#FFFFFF" cx="21.448" cy="4.289" r="3.38"/>
</g>
</svg>
