<?xml version="1.0" encoding="utf-8"?>
<!-- Generator: Adobe Illustrator 16.0.0, SVG Export Plug-In . SVG Version: 6.00 Build 0)  -->
<!DOCTYPE svg PUBLIC "-//W3C//DTD SVG 1.1//EN" "http://www.w3.org/Graphics/SVG/1.1/DTD/svg11.dtd">
<svg version="1.1" id="Layer_1" xmlns="http://www.w3.org/2000/svg" xmlns:xlink="http://www.w3.org/1999/xlink" x="0px" y="0px"
	 width="40px" height="40px" viewBox="0 0 40 40" enable-background="new 0 0 40 40" xml:space="preserve">
<g>
	<path fill="#FFFFFF" d="M34.361,5.473h-15.49c-0.553,0-1,0.448-1,1v12.929l5.664,5.206c1.184,1.205,2.053,2.533,0.705,3.355
		c-0.205,0.129-0.617,0.145-0.617,0.145v4.916h10.738c0.553,0,1-0.446,1-1V6.473C35.361,5.92,34.914,5.473,34.361,5.473z
		 M25.128,18.751c0,0.159-0.108,0.298-0.243,0.298h-2.9c-0.129,0-0.237-0.139-0.237-0.298v-2.942c0-0.162,0.108-0.298,0.237-0.298
		l2.9,0.004c0.135,0,0.243,0.132,0.243,0.294V18.751z M25.128,12.393c0,0.161-0.108,0.296-0.243,0.296h-2.9
		c-0.129,0-0.237-0.135-0.237-0.296V9.448c0-0.159,0.108-0.295,0.237-0.295h2.9c0.135,0,0.243,0.136,0.243,0.295V12.393z
		 M28.043,9.448c0-0.159,0.104-0.295,0.236-0.295h2.896c0.136,0,0.246,0.136,0.246,0.295v2.945c0,0.161-0.11,0.296-0.246,0.296
		h-2.896c-0.133,0-0.236-0.135-0.236-0.296V9.448z M28.043,18.751v-2.942c0-0.162,0.104-0.298,0.236-0.298l2.896,0.004
		c0.136,0,0.246,0.132,0.246,0.294v2.942c0,0.159-0.11,0.298-0.246,0.298h-2.896C28.146,19.049,28.043,18.911,28.043,18.751z
		 M31.484,25.048c0,0.163-0.112,0.295-0.242,0.295h-2.904c-0.128,0-0.236-0.132-0.236-0.295v-2.944c0-0.162,0.108-0.297,0.236-0.297
		h2.904c0.13,0,0.242,0.135,0.242,0.297V25.048z"/>
	<g>
		<path fill="#FFFFFF" d="M21.127,24.988l-4.256-3.853l-1.498-1.354c-1.627-1.614-2.164-1.643-3.803,0l-5.902,5.43
			c-1.051,1.047-1.375,2.057-0.604,2.619c0.245,0.182,0.772,0.092,0.772,0.092v7.609c0,0.551,0.492,0.996,1.1,0.996h13.172
			c0.605,0,1.098-0.445,1.098-0.996v-2.508v-4.984c0,0,0.362-0.014,0.545-0.125C22.943,27.195,22.174,26.037,21.127,24.988z
			 M12.186,30.533c0,0.146-0.102,0.269-0.223,0.269H9.326c-0.117,0-0.215-0.122-0.215-0.269v-2.68c0-0.145,0.098-0.268,0.215-0.268
			h2.637c0.121,0,0.223,0.123,0.223,0.268V30.533z M18.133,33.533c0,0.146-0.1,0.269-0.223,0.269h-2.635
			c-0.119,0-0.217-0.122-0.217-0.269v-5.68c0-0.145,0.098-0.268,0.217-0.268h2.635c0.123,0,0.223,0.123,0.223,0.268V33.533z"/>
	</g>
</g>
</svg>
