<?xml version="1.0" encoding="utf-8"?>
<!-- Generator: Adobe Illustrator 16.0.0, SVG Export Plug-In . SVG Version: 6.00 Build 0)  -->
<!DOCTYPE svg PUBLIC "-//W3C//DTD SVG 1.1//EN" "http://www.w3.org/Graphics/SVG/1.1/DTD/svg11.dtd">
<svg version="1.1" id="Layer_1" xmlns="http://www.w3.org/2000/svg" xmlns:xlink="http://www.w3.org/1999/xlink" x="0px" y="0px"
	 width="40px" height="40px" viewBox="0 0 40 40" enable-background="new 0 0 40 40" xml:space="preserve">
<g>
	<path fill="#FFFFFF" d="M30.314,5.584H12.616H9.549c0,0-0.662,0.056-0.662,0.894c0,0.727,0,21.008,0,26.605
		c0,1.408,1.08,1.338,1.08,1.338h20.318c0,0,0.828,0,0.828-0.938c0-4.902,0-26.381,0-27.149C31.113,5.471,30.314,5.584,30.314,5.584
		z M13.294,8.911h12.412c0.511,0,0.926,0.414,0.926,0.925c0,0.315-0.168,0.58-0.407,0.747h0.442h-0.442
		c-0.147,0.104-0.322,0.179-0.519,0.179H13.294c-0.511,0-0.925-0.414-0.925-0.925C12.369,9.326,12.783,8.911,13.294,8.911z
		 M13.294,13.845h12.41c0.511,0,0.926,0.414,0.926,0.925c0,0.082-0.026,0.154-0.046,0.229h0.083h-0.083
		c-0.104,0.397-0.45,0.696-0.88,0.696h-12.41c-0.511,0-0.925-0.414-0.925-0.925S12.783,13.845,13.294,13.845z M12.369,20.001
		c0-0.511,0.414-0.925,0.925-0.925h7.142c0.285,0,0.531,0.137,0.701,0.341h0.197h-0.197c0.135,0.16,0.225,0.359,0.225,0.584
		c0,0.511-0.416,0.926-0.924,0.926h-7.142C12.783,20.927,12.369,20.512,12.369,20.001z M23.764,31.807
		c-0.195,0.332-0.535,0.558-0.918,0.604c-0.053,0.008-0.104,0.01-0.158,0.01c-0.328,0-0.646-0.129-0.881-0.362l-3.752-3.736
		c-0.244-0.243-0.367-0.563-0.367-0.883c-0.002-0.319,0.119-0.642,0.363-0.888c0.487-0.485,1.28-0.489,1.768-0.004l2.614,2.604
		l4.25-7.194c0.353-0.595,1.116-0.793,1.711-0.438c0.594,0.351,0.793,1.114,0.439,1.711L23.764,31.807z"/>
</g>
</svg>
