<?xml version="1.0" encoding="utf-8"?>
<!-- Generator: Adobe Illustrator 16.0.0, SVG Export Plug-In . SVG Version: 6.00 Build 0)  -->
<!DOCTYPE svg PUBLIC "-//W3C//DTD SVG 1.1//EN" "http://www.w3.org/Graphics/SVG/1.1/DTD/svg11.dtd">
<svg version="1.1" id="Layer_1" xmlns="http://www.w3.org/2000/svg" xmlns:xlink="http://www.w3.org/1999/xlink" x="0px" y="0px"
	 width="40px" height="40px" viewBox="0 0 40 40" enable-background="new 0 0 40 40" xml:space="preserve">
<path fill="#FFFFFF" d="M37.521,9.491h-6.883c-1.104,0-2,0.896-2,2s0.896,2,2,2h2.186L22.294,24.28l-7.24-8.433
	c-0.363-0.423-0.886-0.673-1.443-0.691c-0.551-0.009-1.095,0.2-1.484,0.599L1.057,27.124c-0.764,0.785-0.748,2.042,0.038,2.807
	c0.386,0.375,0.885,0.563,1.384,0.563c0.517,0,1.033-0.2,1.422-0.6l9.556-9.814l7.238,8.432c0.363,0.422,0.886,0.673,1.442,0.69
	c0.563,0.027,1.095-0.198,1.483-0.598L35.521,16.41v1.964c0,1.104,0.896,2,2,2s2-0.896,2-2v-6.883
	C39.521,10.387,38.626,9.491,37.521,9.491z"/>
</svg>
