<svg xmlns="http://www.w3.org/2000/svg" width="16.04" height="14.22" viewBox="0 0 16.04 14.22"><defs><style>.a{fill:#696969;}</style></defs><path class="a" d="M14.95,3.65H13.85V2.19h-.73V6.56h.73V4.37h1.09a.36.36,0,0,1,.36.36V11.3a.36.36,0,0,1-.36.36H12.39V9.84H3.65v1.82H1.09a.37.37,0,0,1-.36-.36V4.74a.37.37,0,0,1,.36-.36H2.19V6.56h.73V2.19H2.19V3.65H1.09A1.09,1.09,0,0,0,0,4.74V11.3a1.09,1.09,0,0,0,1.09,1.09H3.65v1.82h8.75V12.39h2.55A1.09,1.09,0,0,0,16,11.3V4.74A1.09,1.09,0,0,0,14.95,3.65Zm-3.28,9.84H4.37V10.57h7.29Z"/><path class="a" d="M1.82,7.29V8H14.22V7.29H12.39V0H3.65V7.29ZM4.37.73h7.29V7.29H4.37Z"/><rect class="a" x="1.82" y="9.11" width="0.73" height="0.73"/></svg>