<svg xmlns="http://www.w3.org/2000/svg" width="16.08" height="16.04" viewBox="0 0 16.08 16.04"><defs><style>.a{fill:#696969;}</style></defs><path class="a" d="M16.08,8a8,8,0,1,0-8,8H8A8,8,0,0,0,16.08,8Zm-1.2,2.53H12.54A13.47,13.47,0,0,0,12.78,8a13.16,13.16,0,0,0-.25-2.57h2.34a7.15,7.15,0,0,1,0,5.1ZM4,8A12.33,12.33,0,0,1,4.3,5.47H7.67v5.1H4.28A12.58,12.58,0,0,1,4,8ZM8.4.76C9.78,1,11,2.57,11.6,4.74H8.4Zm-.73,0v4H4.48C5.1,2.57,6.3,1,7.67.76Zm0,10.54v4c-1.41-.23-2.61-1.79-3.21-4Zm.73,4v-4h3.21C11,13.49,9.81,15,8.4,15.28Zm0-4.71V5.47h3.37A12.33,12.33,0,0,1,12,8a12.58,12.58,0,0,1-.26,2.53Zm6.15-5.83H12.36a8.17,8.17,0,0,0-1.87-3.58A7.34,7.34,0,0,1,14.55,4.74Zm-9-3.58A8.17,8.17,0,0,0,3.72,4.74H1.53A7.34,7.34,0,0,1,5.59,1.16ZM1.2,5.47H3.55A13.16,13.16,0,0,0,3.3,8a13.47,13.47,0,0,0,.24,2.53H1.2a7.15,7.15,0,0,1,0-5.1Zm.31,5.83H3.7a8,8,0,0,0,1.84,3.56A7.33,7.33,0,0,1,1.51,11.3Zm9,3.56a8,8,0,0,0,1.84-3.56h2.18A7.33,7.33,0,0,1,10.53,14.86Z"/></svg>