<svg xmlns="http://www.w3.org/2000/svg" width="48.65" height="14.9" viewBox="0 0 48.65 14.9"><title>City of Toronto</title><path d="M16.76,6.42c0-1.29,1.17-1.77,2.47-1.77s2.46.48,2.46,1.77V12.9c0,1.3-1.17,1.77-2.46,1.77s-2.47-.48-2.47-1.77Zm2.84.25c0-.27,0-.64-.37-.64s-.37.37-.37.64v5.92c0,.27,0,.64.37.64s.37-.37.37-.64Zm2.88,7.81V4.84h2.47c1.29,0,2.47.48,2.47,2V7.6A1.5,1.5,0,0,1,26,9.18H25.8c1.32.07,1.62.53,1.62,1.64v1.92a4.48,4.48,0,0,0,.31,1.72H25.6a2.32,2.32,0,0,1-.28-1.25V11c0-.6,0-1.08-.74-1.08v4.54Zm2.06-5.66h.25c.34,0,.49-.15.49-.61V6.78c0-.46-.15-.61-.49-.61h-.25Zm3.59-2.4c0-1.29,1.17-1.77,2.47-1.77s2.46.48,2.46,1.77V12.9c0,1.3-1.17,1.77-2.46,1.77s-2.47-.48-2.47-1.77ZM31,6.67C31,6.4,31,6,30.63,6s-.37.37-.37.64v5.92c0,.27,0,.64.37.64s.37-.37.37-.64Zm2.83,7.81V4.84H36.6l1,6.14v.23h0V4.84h1.67v9.64H36.67L35.53,7.12V6.85h0v7.63Zm9.89-8.06c0-1.29,1.17-1.77,2.47-1.77s2.46.48,2.46,1.77V12.9c0,1.3-1.17,1.77-2.46,1.77s-2.47-.48-2.47-1.77Zm2.84.25c0-.27,0-.64-.37-.64s-.37.37-.37.64v5.92c0,.27,0,.64.37.64s.37-.37.37-.64ZM43.37,4.84h-3.7V6.29h.8v8.19h2.1V6.29h.8ZM17.58,2.48H12.33V4h1.55V14.48H16V4h1.56ZM12.17,14.83v-.06A9.59,9.59,0,0,0,7.78,14H0v.53H10.5a6.47,6.47,0,0,1,1.67.34M9.07.29,8.76,0a.37.37,0,0,0-.29,0L8,.26V2.55A3.72,3.72,0,0,1,6.51,3.92a.35.35,0,0,0-.21.36v8.53a7.59,7.59,0,0,0-.81.07V5.66c0-.27-.12-.35-.37-.41A14.42,14.42,0,0,1,2.4,4.33V2.85L2,2.65a.52.52,0,0,0-.34,0,3.8,3.8,0,0,0-.49.28A2.32,2.32,0,0,0,0,4.85v8.82H.79V4.85a1.48,1.48,0,0,1,.75-1.32H1.6V13.67h.78V5.17c.62.23,1,.39,1.67.6l.64.17V13a9.5,9.5,0,0,0-2.19.68H4a9.23,9.23,0,0,1,3.77-.8L7,12.82V4.5h.08A4.11,4.11,0,0,0,8,3.79v9.88h.81V1.2a3.8,3.8,0,0,1,.77,2.23V13.75a3.18,3.18,0,0,1,.79.13V3.41A4.71,4.71,0,0,0,9.07.29" transform="translate(0 0.03)"/></svg>